<?xml version="1.0" encoding="utf-8"?>
<!-- Generator: Adobe Illustrator 26.2.1, SVG Export Plug-In . SVG Version: 6.00 Build 0)  -->
<svg version="1.1" id="a" xmlns="http://www.w3.org/2000/svg" xmlns:xlink="http://www.w3.org/1999/xlink" x="0px" y="0px"
	 viewBox="0 0 927.7 448" style="enable-background:new 0 0 927.7 448;" xml:space="preserve">
<style type="text/css">
	.st0{fill-rule:evenodd;clip-rule:evenodd;fill:url(#c_00000018952025281208363220000015556270327014830504_);}
	.st1{fill-rule:evenodd;clip-rule:evenodd;fill:url(#e_00000031928328220695015850000000646203003822629509_);}
	.st2{fill-rule:evenodd;clip-rule:evenodd;fill:url(#g_00000018947139400446276360000005429442791986562474_);}
	.st3{fill-rule:evenodd;clip-rule:evenodd;fill:#7A7A7A;}
	.st4{fill-rule:evenodd;clip-rule:evenodd;fill:url(#SVGID_1_);}
	.st5{fill-rule:evenodd;clip-rule:evenodd;fill:url(#j_00000092425342061077856630000002251529965001489854_);}
	.st6{fill-rule:evenodd;clip-rule:evenodd;fill:url(#l_00000165936921483392588390000010054072207449594789_);}
	.st7{fill-rule:evenodd;clip-rule:evenodd;fill:#B4B4B4;}
	.st8{fill-rule:evenodd;clip-rule:evenodd;fill:url(#SVGID_00000169554644750182253310000000196970651503436443_);}
	.st9{fill:#979797;}
	.st10{fill:url(#SVGID_00000008142189805473161840000006914670267607426994_);}
	.st11{fill:url(#p_00000070093271734612512230000009185922826195649685_);}
	.st12{fill-rule:evenodd;clip-rule:evenodd;fill:url(#SVGID_00000100376206701303979090000006133538671946934969_);}
	.st13{fill-rule:evenodd;clip-rule:evenodd;fill:url(#SVGID_00000042007093855906888170000003098469567678739890_);}
	.st14{fill-rule:evenodd;clip-rule:evenodd;fill:url(#SVGID_00000085939396235007436050000008093368864180850316_);}
	.st15{fill-rule:evenodd;clip-rule:evenodd;fill:url(#u_00000105415947566802733170000003953744719076241026_);}
	.st16{fill-rule:evenodd;clip-rule:evenodd;fill:#FFFFFF;}
	.st17{fill-rule:evenodd;clip-rule:evenodd;fill:url(#y_00000126281265848648370450000009179038509378380961_);}
</style>
<g>
	
		<linearGradient id="c_00000103252229611865283240000004178552514139120277_" gradientUnits="userSpaceOnUse" x1="2758.8247" y1="-320.094" x2="2759.3447" y2="-320.094" gradientTransform="matrix(702.8 0 0 73.1 -1938851.625 23801.0176)">
		<stop  offset="0" style="stop-color:#3A58DD;stop-opacity:0"/>
		<stop  offset="1" style="stop-color:#4164FF;stop-opacity:0.85"/>
	</linearGradient>
	<path id="c" style="fill-rule:evenodd;clip-rule:evenodd;fill:url(#c_00000103252229611865283240000004178552514139120277_);" d="
		M38.5,377.1v21L0,410.1l260,12.3l178.5,8.1l116.1,4.7l70.3,2.5l38.5,0.9l18.2,0.1l6.6-0.3l1.5-0.3l6.1-4.8l5.2-5.5l1.8-3.6v-2.5
		l-1.4-1.8l-4.1-2.1l-7.7-4.7l-6.4-2.8l-11.5-3.2l-8.9-1.9l-23.5-4l-34.5-4.9l-47.8-5.7L368.3,379l-54.5-3l-136.5-6.8l-82.6-3.6
		h-5.3l-6.6,0.6l-8.1,1.3l-10,2.2l-11.9,3.1L38.5,377.1L38.5,377.1z"/>
</g>
<linearGradient id="e_00000057141625416989234250000001973830844477177497_" gradientUnits="userSpaceOnUse" x1="2744.2996" y1="-296.7442" x2="2744.5195" y2="-295.6142" gradientTransform="matrix(148 0 0 274.5 -405850.9062 81553.7188)">
	<stop  offset="0" style="stop-color:#3A5EDF"/>
	<stop  offset="0.54" style="stop-color:#3A5EDF"/>
	<stop  offset="1" style="stop-color:#B6D5FF"/>
</linearGradient>
<path id="e" style="fill-rule:evenodd;clip-rule:evenodd;fill:url(#e_00000057141625416989234250000001973830844477177497_);" d="
	M339.7,132.6l29,4.5l-81.2,164.2l80.8,8.6v-81.8l26.4,3.9v80.7l8,0.9v32.5l-8-0.9v61.9l-26.4-3v-61.8l-113.6-12.4v-32L339.7,132.6
	L339.7,132.6z"/>
<linearGradient id="g_00000036212853032208888830000001674780885980479151_" gradientUnits="userSpaceOnUse" x1="2658.1189" y1="-296.8477" x2="2658.1289" y2="-295.7177" gradientTransform="matrix(26.4 0 0 271.7 -69497.9922 80781.3672)">
	<stop  offset="0" style="stop-color:#3A5EDF"/>
	<stop  offset="0.54" style="stop-color:#3A5EDF"/>
	<stop  offset="1" style="stop-color:#B6D5FF"/>
</linearGradient>
<path id="g" style="fill-rule:evenodd;clip-rule:evenodd;fill:url(#g_00000036212853032208888830000001674780885980479151_);" d="
	M663.3,166.4l26.4,3.7v268l-26.4-3V166.4z"/>
<g>
	<path class="st3" d="M368.5,310.1l-84.5-9l18.2-8l66.3,7V310.1z"/>
	
		<linearGradient id="SVGID_1_" gradientUnits="userSpaceOnUse" x1="2730.6399" y1="-427.9397" x2="2729.8701" y2="-427.9495" gradientTransform="matrix(84.5 0 0 17 -230390.1562 7576.6094)">
		<stop  offset="0" style="stop-color:#D9EAFF"/>
		<stop  offset="1" style="stop-color:#9BBFFE"/>
	</linearGradient>
	<path class="st4" d="M368.5,310.1l-84.5-9l18.2-8l66.3,7V310.1z"/>
</g>
<linearGradient id="j_00000083784407225446183760000013728472856228445097_" gradientUnits="userSpaceOnUse" x1="2554.6184" y1="-299.9846" x2="2554.6384" y2="-300.9346" gradientTransform="matrix(13.3 0 0 183.6 -33575.1992 55473.3242)">
	<stop  offset="0" style="stop-color:#CAE1FF"/>
	<stop  offset="0.32" style="stop-color:#A5C7F9"/>
	<stop  offset="1" style="stop-color:#3258E8"/>
	<stop  offset="1" style="stop-color:#3258E8"/>
</linearGradient>
<path id="j" style="fill-rule:evenodd;clip-rule:evenodd;fill:url(#j_00000083784407225446183760000013728472856228445097_);" d="
	M394.8,231.9l13.2-8.4l-0.1,175.2l-13.2,8.4L394.8,231.9z"/>
<linearGradient id="l_00000031925903408648363940000018078690725841968290_" gradientUnits="userSpaceOnUse" x1="2554.6194" y1="-295.6261" x2="2554.6294" y2="-296.5861" gradientTransform="matrix(13.3 0 0 276 -33280.1992 82015.0938)">
	<stop  offset="0" style="stop-color:#CAE1FF"/>
	<stop  offset="0.32" style="stop-color:#A5C7F9"/>
	<stop  offset="1" style="stop-color:#3258E8"/>
	<stop  offset="1" style="stop-color:#3258E8"/>
</linearGradient>
<path id="l" style="fill-rule:evenodd;clip-rule:evenodd;fill:url(#l_00000031925903408648363940000018078690725841968290_);" d="
	M689.7,170.5l13.3-8.4l-0.1,267.6l-13.2,8.4V170.5z"/>
<g>
	<path class="st7" d="M368.4,136.9l13.8-8l-80,164.2l-18.2,8L368.4,136.9L368.4,136.9z"/>
	
		<linearGradient id="SVGID_00000139974991573541864020000017692561291296893068_" gradientUnits="userSpaceOnUse" x1="2735.0684" y1="-301.3276" x2="2734.7485" y2="-301.1876" gradientTransform="matrix(98.2 0 0 172.2 -268239.1562 52096.5117)">
		<stop  offset="0" style="stop-color:#9BBFFE"/>
		<stop  offset="1" style="stop-color:#D9EAFF"/>
	</linearGradient>
	<path style="fill-rule:evenodd;clip-rule:evenodd;fill:url(#SVGID_00000139974991573541864020000017692561291296893068_);" d="
		M368.4,136.9l13.8-8l-80,164.2l-18.2,8L368.4,136.9L368.4,136.9z"/>
</g>
<g>
	<path class="st9" d="M531.5,151.6l6.5,0.6l6.2,1l6,1.4l5.7,1.8l5.4,2.1l5.3,2.6l5,2.8l4.7,3.2l4.4,3.4l4.1,3.8l3.8,4.1l3.4,4.3
		l3.1,4.6l2.7,4.9l2.4,5.1l1.9,5.2l1.5,5.4l1.2,5.7l0.6,5.9l0.3,6.1v120l-0.3,6.1l-0.7,5.9l-1.1,5.7l-1.6,5.5l-2.1,5.4l-2.4,5.2
		l-2.8,4.9l-3.2,4.7l-3.5,4.4l-3.8,4.2l-4.2,3.8l-4.4,3.5l-4.7,3.2l-4.9,2.8l-5.2,2.4l-5.4,2.1l-5.5,1.6l-5.7,1.1l-5.9,0.7
		l-13.6,0.3l-7.2-0.5l-6.4-1.5l-6.1-2l-5.7-2.5l-5.5-3l-5.2-3.5l-4.8-3.8l-4.4-4.3l-4.2-4.7l-3.7-5.1l-3.2-5.3l-2.8-5.6l-2.4-6
		l-1.9-6.1l-1.4-6.3l-0.8-6.5l-0.3-6.8v-120l0.2-6.8l0.6-6.6l1-6.3l1.4-6l1.8-6.1l2.2-5.6l2.6-5.3l3-5l3.4-4.7l3.8-4.3l4.2-3.8
		l4.6-3.5l4.9-3l5.3-2.5l5.9-2l6.4-1.5l3.5-0.5l11.1-0.6L531.5,151.6L531.5,151.6z M532.2,186.2l-8,0.8l-7.3,2.3l-6.7,3.6l-5.9,4.8
		l-4.8,5.9l-3.6,6.7l-2.3,7.3l-0.8,8v120l0.8,8l1,3.7l3,7.1l4.2,6.3l5.3,5.3l6.3,4.2l3.5,1.7l7.3,2.3l3.9,0.6l4.1,0.2l4.1-0.2
		l7.6-1.6l7.1-3l6.3-4.2l5.3-5.3l2.3-3.1l3.6-6.7l2.3-7.3l0.8-8v-120l-0.8-8l-1-3.7l-3-7.1l-4.2-6.3l-5.3-5.3L551,191l-7.1-3
		l-7.6-1.6L532.2,186.2L532.2,186.2z"/>
	
		<linearGradient id="SVGID_00000122722184133598590930000011632001280551214519_" gradientUnits="userSpaceOnUse" x1="2744.4153" y1="-295.828" x2="2744.2654" y2="-296.7179" gradientTransform="matrix(147 0 0 267.6 -402884.1875 79586.0234)">
		<stop  offset="0" style="stop-color:#D9EAFF"/>
		<stop  offset="1" style="stop-color:#9BBFFE"/>
	</linearGradient>
	<path style="fill:url(#SVGID_00000122722184133598590930000011632001280551214519_);" d="M531.5,151.6l6.5,0.6l6.2,1l6,1.4l5.7,1.8
		l5.4,2.1l5.3,2.6l5,2.8l4.7,3.2l4.4,3.4l4.1,3.8l3.8,4.1l3.4,4.3l3.1,4.6l2.7,4.9l2.4,5.1l1.9,5.2l1.5,5.4l1.2,5.7l0.6,5.9l0.3,6.1
		v120l-0.3,6.1l-0.7,5.9l-1.1,5.7l-1.6,5.5l-2.1,5.4l-2.4,5.2l-2.8,4.9l-3.2,4.7l-3.5,4.4l-3.8,4.2l-4.2,3.8l-4.4,3.5l-4.7,3.2
		l-4.9,2.8l-5.2,2.4l-5.4,2.1l-5.5,1.6l-5.7,1.1l-5.9,0.7l-13.6,0.3l-7.2-0.5l-6.4-1.5l-6.1-2l-5.7-2.5l-5.5-3l-5.2-3.5l-4.8-3.8
		l-4.4-4.3l-4.2-4.7l-3.7-5.1l-3.2-5.3l-2.8-5.6l-2.4-6l-1.9-6.1l-1.4-6.3l-0.8-6.5l-0.3-6.8v-120l0.2-6.8l0.6-6.6l1-6.3l1.4-6
		l1.8-6.1l2.2-5.6l2.6-5.3l3-5l3.4-4.7l3.8-4.3l4.2-3.8l4.6-3.5l4.9-3l5.3-2.5l5.9-2l6.4-1.5l3.5-0.5l11.1-0.6L531.5,151.6
		L531.5,151.6z M532.2,186.2l-8,0.8l-7.3,2.3l-6.7,3.6l-5.9,4.8l-4.8,5.9l-3.6,6.7l-2.3,7.3l-0.8,8v120l0.8,8l1,3.7l3,7.1l4.2,6.3
		l5.3,5.3l6.3,4.2l3.5,1.7l7.3,2.3l3.9,0.6l4.1,0.2l4.1-0.2l7.6-1.6l7.1-3l6.3-4.2l5.3-5.3l2.3-3.1l3.6-6.7l2.3-7.3l0.8-8v-120
		l-0.8-8l-1-3.7l-3-7.1l-4.2-6.3l-5.3-5.3L551,191l-7.1-3l-7.6-1.6L532.2,186.2L532.2,186.2z"/>
</g>
<linearGradient id="p_00000029731811059957137430000001026690541969416375_" gradientUnits="userSpaceOnUse" x1="2744.2" y1="-296.9907" x2="2744.4299" y2="-295.8707" gradientTransform="matrix(147 0 0 267 -402897.1875 79413.875)">
	<stop  offset="0" style="stop-color:#3A5EDF"/>
	<stop  offset="0.54" style="stop-color:#3A5EDF"/>
	<stop  offset="1" style="stop-color:#B6D5FF"/>
</linearGradient>
<path id="p" style="fill:url(#p_00000029731811059957137430000001026690541969416375_);" d="M519.2,152.1l6.1,0.3l5.9,0.7l5.7,1.1
	l5.5,1.6l5.4,2.1l5.2,2.4l4.9,2.8l4.7,3.2l4.4,3.5l4.2,3.8l3.8,4.2l3.5,4.4l3.2,4.7l2.8,4.9l2.4,5.2l2.1,5.4l1.6,5.5l1.1,5.7
	l0.7,5.9l0.3,6.1v120l-0.3,6.1l-0.7,5.9l-1.1,5.7l-1.6,5.5l-2.1,5.4l-2.4,5.2l-2.8,4.9l-3.2,4.7l-3.5,4.4l-3.8,4.2l-4.2,3.8
	l-4.4,3.5l-4.7,3.2l-4.9,2.8l-5.2,2.4l-5.4,2.1l-5.5,1.6l-5.7,1.1l-5.9,0.7l-6.1,0.3l-6.1-0.3l-5.9-0.7l-5.7-1.1l-5.5-1.6l-5.4-2.1
	l-5.2-2.4l-4.9-2.8l-4.7-3.2l-4.4-3.5l-4.2-3.8l-3.8-4.2l-3.5-4.4l-3.2-4.7l-2.8-4.9l-2.4-5.2l-2.1-5.4l-1.6-5.5l-1.1-5.7l-0.7-5.9
	l-0.3-6.1v-120l0.3-6.1l0.7-5.9l1.1-5.7l1.6-5.5l2.1-5.4l2.4-5.2l2.8-4.9l3.2-4.7l3.5-4.4l3.8-4.2l4.2-3.8l4.4-3.5l4.7-3.2l4.9-2.8
	l5.2-2.4l5.4-2.1l5.5-1.6l5.7-1.1l5.9-0.7L519.2,152.1L519.2,152.1z M519.2,186.2l-8,0.8l-7.3,2.3l-6.7,3.6l-5.9,4.8l-4.8,5.9
	l-3.6,6.7l-2.3,7.3l-0.8,8v120l0.8,8l1,3.7l3,7.1l4.2,6.3l5.3,5.3l6.3,4.2l3.5,1.7l7.3,2.3l3.9,0.6l4.1,0.2l4.1-0.2l7.6-1.6l7.1-3
	l6.3-4.2l5.3-5.3l2.3-3.1l3.6-6.7l2.3-7.3l0.8-8v-120l-0.8-8l-1-3.7l-3-7.1l-4.2-6.3l-5.3-5.3L538,191l-7.1-3l-7.6-1.6L519.2,186.2
	L519.2,186.2z"/>
<g>
	<path class="st3" d="M385,221.1l23,2.5l-13.3,8.5l-26.4-3.7L385,221.1L385,221.1z"/>
	
		<linearGradient id="SVGID_00000176019843924955425080000005343201948924132284_" gradientUnits="userSpaceOnUse" x1="2693.8284" y1="-504.5984" x2="2692.8484" y2="-504.5884" gradientTransform="matrix(39.7 0 0 11 -106536.8828 5777.1309)">
		<stop  offset="0" style="stop-color:#D9EAFF"/>
		<stop  offset="1" style="stop-color:#9BBFFE"/>
	</linearGradient>
	<path style="fill-rule:evenodd;clip-rule:evenodd;fill:url(#SVGID_00000176019843924955425080000005343201948924132284_);" d="
		M385,221.1l23,2.5l-13.3,8.5l-26.4-3.7L385,221.1L385,221.1z"/>
</g>
<g>
	<path class="st3" d="M680.9,159.1l23.1,2.5l-13.3,8.5l-26.4-3.7L680.9,159.1L680.9,159.1z"/>
	
		<linearGradient id="SVGID_00000143594778174259773080000009929980382281793426_" gradientUnits="userSpaceOnUse" x1="2693.8289" y1="-504.5984" x2="2692.8489" y2="-504.5884" gradientTransform="matrix(39.7 0 0 11 -106240.8984 5715.1309)">
		<stop  offset="0" style="stop-color:#D9EAFF"/>
		<stop  offset="1" style="stop-color:#9BBFFE"/>
	</linearGradient>
	<path style="fill-rule:evenodd;clip-rule:evenodd;fill:url(#SVGID_00000143594778174259773080000009929980382281793426_);" d="
		M680.9,159.1l23.1,2.5l-13.3,8.5l-26.4-3.7L680.9,159.1L680.9,159.1z"/>
</g>
<g>
	<path class="st3" d="M352.5,125.6l29.7,3.3l-13.9,8.2l-28.6-4.4L352.5,125.6z"/>
	
		<linearGradient id="SVGID_00000056390011422486613300000009332760854369356444_" gradientUnits="userSpaceOnUse" x1="2698.4316" y1="-495.1563" x2="2697.4517" y2="-495.1463" gradientTransform="matrix(42.5 0 0 11.5 -114301.0469 5825.5869)">
		<stop  offset="0" style="stop-color:#D9EAFF"/>
		<stop  offset="1" style="stop-color:#9BBFFE"/>
	</linearGradient>
	<path style="fill-rule:evenodd;clip-rule:evenodd;fill:url(#SVGID_00000056390011422486613300000009332760854369356444_);" d="
		M352.5,125.6l29.7,3.3l-13.9,8.2l-28.6-4.4L352.5,125.6z"/>
</g>
<linearGradient id="u_00000105405701419532221280000006877854851897238656_" gradientUnits="userSpaceOnUse" x1="2702.8958" y1="-339.8513" x2="2702.8958" y2="-338.8513" gradientTransform="matrix(46 0 0 46 -123740.5 15637.0859)">
	<stop  offset="0" style="stop-color:#FADE1D"/>
	<stop  offset="1" style="stop-color:#F1C457"/>
</linearGradient>
<path id="u" style="fill-rule:evenodd;clip-rule:evenodd;fill:url(#u_00000105405701419532221280000006877854851897238656_);" d="
	M615.7,27.1l-0.2,3.2l-1.6,5.8l-1.3,2.6l-3.6,4.7l-4.7,3.6l-2.6,1.3l-5.8,1.6l-3.2,0.2l-3.2-0.2l-3-0.6l-2.8-1l-5.1-3l-4.1-4.1
	l-1.7-2.5l-2.3-5.4l-0.6-3l-0.2-3.2l0.8-6.2l1-2.8l3-5.1l4.1-4.1l5.1-3l5.8-1.6l3.2-0.2l3.2,0.2l5.8,1.6l2.6,1.3l4.7,3.6l3.6,4.7
	l1.3,2.6l1,2.8l0.6,3L615.7,27.1z"/>
<path id="v" class="st16" d="M603.1,15.5l0.7,1l0.2,1.1l-0.1,1.1l-0.6,1.1l-8.7,9.6l-1,0.8l-1.1,0.2l-1.1-0.1l-1.1-0.6l-0.7-1
	l-0.2-1.1l0.1-1.1l0.6-1.1l8.7-9.6l1-0.8l1.1-0.2l1.1,0.1L603.1,15.5z"/>
<path id="w" class="st16" d="M588.7,35.1l-0.2,1.2l-0.7,0.9l-0.9,0.7l-1.2,0.2l-1.2-0.2l-0.9-0.7l-0.7-0.9l-0.2-1.2l0.2-1.2l0.7-0.9
	l0.9-0.7l1.2-0.2l1.2,0.2l0.9,0.7l0.7,0.9L588.7,35.1z"/>
<radialGradient id="y_00000085954002804335005560000013299516186907221165_" cx="2685.0022" cy="-354.6485" r="0.63" gradientTransform="matrix(36 0 0 36 -95833.5 13045.957)" gradientUnits="userSpaceOnUse">
	<stop  offset="0" style="stop-color:#BFD7FF"/>
	<stop  offset="1" style="stop-color:#7195FF"/>
</radialGradient>
<path id="y" style="fill-rule:evenodd;clip-rule:evenodd;fill:url(#y_00000085954002804335005560000013299516186907221165_);" d="
	M849.7,275.1l-0.3,3.3l-0.8,3l-1.4,2.8l-1.7,2.5l-2.2,2.2l-2.5,1.7L838,292l-3,0.8l-3.3,0.3l-3.3-0.3l-3-0.8l-2.8-1.4l-2.5-1.7
	l-2.2-2.2l-1.7-2.5l-1.4-2.8l-0.8-3l-0.3-3.3l0.3-3.3l0.8-3l1.4-2.8l1.7-2.5l2.2-2.2l2.5-1.7l2.8-1.4l3-0.8l3.3-0.3l3.3,0.3l3,0.8
	l2.8,1.4l2.5,1.7l2.2,2.2l1.7,2.5l1.4,2.8l0.8,3L849.7,275.1z"/>
</svg>
