<?xml version="1.0" encoding="utf-8"?>
<!-- Generator: Adobe Illustrator 26.2.1, SVG Export Plug-In . SVG Version: 6.00 Build 0)  -->
<svg version="1.1" id="图层_1" xmlns="http://www.w3.org/2000/svg" xmlns:xlink="http://www.w3.org/1999/xlink" x="0px" y="0px"
	 viewBox="0 0 1024 490.7" style="enable-background:new 0 0 1024 490.7;" xml:space="preserve">
<style type="text/css">
	.st0{fill-rule:evenodd;clip-rule:evenodd;fill:url(#路径-4_00000148637602381931779060000001709863266571929243_);}
	.st1{fill-rule:evenodd;clip-rule:evenodd;fill:url(#形状结合_00000042008241169846738080000002538832879406466468_);}
	.st2{fill-rule:evenodd;clip-rule:evenodd;fill:url(#形状结合备份_00000043432556178269428940000014411507315993243067_);}
	.st3{fill-rule:evenodd;clip-rule:evenodd;fill:url(#路径_00000143593926321840700200000009116087016897129635_);}
	.st4{fill-rule:evenodd;clip-rule:evenodd;fill:#7A7A7A;}
	.st5{fill-rule:evenodd;clip-rule:evenodd;fill:url(#SVGID_1_);}
	.st6{fill-rule:evenodd;clip-rule:evenodd;fill:url(#矩形_00000086690613666263452060000014782145668352282253_);}
	.st7{fill-rule:evenodd;clip-rule:evenodd;fill:url(#矩形备份_00000127736951369297616140000015691668995469408669_);}
	.st8{fill-rule:evenodd;clip-rule:evenodd;fill:url(#矩形备份-12_00000070112986540985292260000014168212309640583073_);}
	.st9{fill-rule:evenodd;clip-rule:evenodd;fill:#B4B4B4;}
	.st10{fill-rule:evenodd;clip-rule:evenodd;fill:url(#SVGID_00000026880312192643625840000014943236068547096993_);}
	.st11{fill:url(#矩形_00000033363704494586453110000016340046605281583762_);}
	.st12{fill:url(#矩形备份-14_00000067937358622020237690000011885303639326538652_);}
	.st13{fill-rule:evenodd;clip-rule:evenodd;fill:url(#矩形_00000176744581976669509380000012652942554573926075_);}
	.st14{fill-rule:evenodd;clip-rule:evenodd;fill:url(#SVGID_00000134215573216821010220000006831340682216447418_);}
	.st15{fill-rule:evenodd;clip-rule:evenodd;fill:url(#SVGID_00000137126496906408113640000002342881917135585427_);}
	.st16{fill-rule:evenodd;clip-rule:evenodd;fill:url(#SVGID_00000070084343197949273920000011276114978583853450_);}
	.st17{fill:none;stroke:#60A3FF;stroke-width:2;stroke-dasharray:3,2;}
	.st18{fill-rule:evenodd;clip-rule:evenodd;fill:url(#路径-23_00000109710694645837681910000008926721941163038118_);}
	.st19{fill-rule:evenodd;clip-rule:evenodd;fill:#C09332;}
	.st20{fill-rule:evenodd;clip-rule:evenodd;fill:url(#椭圆形备份-4_00000074426604674436104290000003225143387778315171_);}
</style>
<g>
	
		<linearGradient id="路径-4_00000023274648503019453250000007084586531121911979_" gradientUnits="userSpaceOnUse" x1="481.4296" y1="297.1415" x2="481.9483" y2="297.1367" gradientTransform="matrix(752.1 0 0 -73.1 -362018.9062 22144.8145)">
		<stop  offset="0" style="stop-color:#3A58DD;stop-opacity:0"/>
		<stop  offset="1" style="stop-color:#4164FF;stop-opacity:0.8469"/>
	</linearGradient>
	
		<path id="路径-4" style="fill-rule:evenodd;clip-rule:evenodd;fill:url(#路径-4_00000023274648503019453250000007084586531121911979_);" d="
		M49.8,399v21l-38.5,12l280.2,12.4l192,8l124.6,4.8l75.3,2.4l41,1h19.1l7-0.3l1.5-0.3l5.8-4.1l4.3-3.9l1.3-2.5v-1.1l-0.4-0.9l-1.1-1
		l-1.9-1l-7.8-3l-11.3-3.4l-16.6-4l-10.3-2.2l-27.9-4.9l-18.1-2.8l-43.6-6l-56.1-6.7l-188.7-11.6l-54.5-3l-136.5-6.8l-82.6-3.6h-5.3
		l-6.6,0.6l-8.1,1.3l-10,2.2l-11.9,3.1L49.8,399z"/>
</g>
<g>
	
		<linearGradient id="形状结合_00000013911494092933639640000003096343635254750339_" gradientUnits="userSpaceOnUse" x1="479.0842" y1="292.9267" x2="479.3068" y2="291.8007" gradientTransform="matrix(148 0 0 -274.5 -70618 80518.9766)">
		<stop  offset="0" style="stop-color:#3A5EDF"/>
		<stop  offset="0.5441" style="stop-color:#3A5EDF"/>
		<stop  offset="1" style="stop-color:#B6D5FF"/>
	</linearGradient>
	
		<path id="形状结合" style="fill-rule:evenodd;clip-rule:evenodd;fill:url(#形状结合_00000013911494092933639640000003096343635254750339_);" d="
		M321,145.5l29,4.5l-81.2,164.2l80.8,8.6V241l26.4,3.9v80.7l8,0.9V359l-8-0.9V420l-26.4-3v-61.8L236,342.8v-32L321,145.5z"/>
	
		<linearGradient id="形状结合备份_00000034073445088128163570000002150178106931509659_" gradientUnits="userSpaceOnUse" x1="479.0842" y1="292.9267" x2="479.3068" y2="291.8007" gradientTransform="matrix(148 0 0 -274.5 -70242 80558.9766)">
		<stop  offset="0" style="stop-color:#3A5EDF"/>
		<stop  offset="0.5441" style="stop-color:#3A5EDF"/>
		<stop  offset="1" style="stop-color:#B6D5FF"/>
	</linearGradient>
	
		<path id="形状结合备份" style="fill-rule:evenodd;clip-rule:evenodd;fill:url(#形状结合备份_00000034073445088128163570000002150178106931509659_);" d="
		M697,185.5l29,4.5l-81.2,164.2l80.8,8.6V281l26.4,3.9v80.7l8,0.9V399l-8-0.9V460l-26.4-3v-61.8L612,382.8v-32L697,185.5z"/>
	
		<linearGradient id="路径_00000079459162676985501690000007731726835066364094_" gradientUnits="userSpaceOnUse" x1="477.067" y1="318.8943" x2="476.296" y2="318.9043" gradientTransform="matrix(84.5 0 0 -17 -39981.6992 5735.7827)">
		<stop  offset="0" style="stop-color:#D9EAFF"/>
		<stop  offset="1" style="stop-color:#9BBFFE"/>
	</linearGradient>
	
		<path id="路径" style="fill-rule:evenodd;clip-rule:evenodd;fill:url(#路径_00000079459162676985501690000007731726835066364094_);" d="
		M349.8,323l-84.5-9l18.2-8l66.3,7V323z"/>
	<g>
		<g>
			<path class="st4" d="M725.8,363l-84.5-9l18.2-8l66.3,7V363z"/>
		</g>
		
			<linearGradient id="SVGID_1_" gradientUnits="userSpaceOnUse" x1="477.067" y1="318.8943" x2="476.296" y2="318.9043" gradientTransform="matrix(84.5 0 0 -17 -39605.6992 5775.7827)">
			<stop  offset="0" style="stop-color:#D9EAFF"/>
			<stop  offset="1" style="stop-color:#9BBFFE"/>
		</linearGradient>
		<path class="st5" d="M725.8,363l-84.5-9l18.2-8l66.3,7V363z"/>
	</g>
	
		<linearGradient id="矩形_00000157285009897225949780000005500000562365850023_" gradientUnits="userSpaceOnUse" x1="446.2511" y1="292.7259" x2="446.269" y2="293.682" gradientTransform="matrix(13.3 0 0 -183.6 -5552.5942 54154.0273)">
		<stop  offset="0" style="stop-color:#CAE1FF"/>
		<stop  offset="0.3188" style="stop-color:#A5C7F9"/>
		<stop  offset="1" style="stop-color:#3258E8"/>
		<stop  offset="1" style="stop-color:#3258E8"/>
	</linearGradient>
	
		<path id="矩形" style="fill-rule:evenodd;clip-rule:evenodd;fill:url(#矩形_00000157285009897225949780000005500000562365850023_);" d="
		M376.1,244.8l13.2-8.4l-0.1,175.2L376,420L376.1,244.8z"/>
	
		<linearGradient id="矩形备份_00000024001290163919616980000008261660031110970513_" gradientUnits="userSpaceOnUse" x1="446.2511" y1="292.7259" x2="446.269" y2="293.682" gradientTransform="matrix(13.3 0 0 -183.6 -5176.5942 54194.0195)">
		<stop  offset="0" style="stop-color:#CAE1FF"/>
		<stop  offset="0.3188" style="stop-color:#A5C7F9"/>
		<stop  offset="1" style="stop-color:#3258E8"/>
		<stop  offset="1" style="stop-color:#3258E8"/>
	</linearGradient>
	
		<path id="矩形备份" style="fill-rule:evenodd;clip-rule:evenodd;fill:url(#矩形备份_00000024001290163919616980000008261660031110970513_);" d="
		M752.1,284.8l13.2-8.4l-0.1,175.2L752,460L752.1,284.8z"/>
	
		<linearGradient id="矩形备份-12_00000178888054878389658600000002448974585016322188_" gradientUnits="userSpaceOnUse" x1="477.7061" y1="293.3805" x2="477.3874" y2="293.2491" gradientTransform="matrix(98.2 0 0 -172.2 -46585.1055 50741.5352)">
		<stop  offset="0" style="stop-color:#9BBFFE"/>
		<stop  offset="1" style="stop-color:#D9EAFF"/>
	</linearGradient>
	
		<path id="矩形备份-12" style="fill-rule:evenodd;clip-rule:evenodd;fill:url(#矩形备份-12_00000178888054878389658600000002448974585016322188_);" d="
		M349.7,149.8l13.8-8l-80,164.2l-18.2,8L349.7,149.8z"/>
	<g>
		<g>
			<path class="st9" d="M725.7,189.8l13.8-8l-80,164.2l-18.2,8L725.7,189.8z"/>
		</g>
		
			<linearGradient id="SVGID_00000005244312623445291040000005441595543223835538_" gradientUnits="userSpaceOnUse" x1="477.7061" y1="293.3805" x2="477.3874" y2="293.2491" gradientTransform="matrix(98.2 0 0 -172.2 -46209.1055 50781.5352)">
			<stop  offset="0" style="stop-color:#9BBFFE"/>
			<stop  offset="1" style="stop-color:#D9EAFF"/>
		</linearGradient>
		<path style="fill-rule:evenodd;clip-rule:evenodd;fill:url(#SVGID_00000005244312623445291040000005441595543223835538_);" d="
			M725.7,189.8l13.8-8l-80,164.2l-18.2,8L725.7,189.8z"/>
	</g>
	
		<linearGradient id="矩形_00000128477606425544367130000013593168682964418233_" gradientUnits="userSpaceOnUse" x1="479.3099" y1="291.829" x2="479.1546" y2="292.7264" gradientTransform="matrix(147 0 0 -267.6 -69932 78529.6797)">
		<stop  offset="0" style="stop-color:#D9EAFF"/>
		<stop  offset="1" style="stop-color:#9BBFFE"/>
	</linearGradient>
	
		<path id="矩形_00000025410658911462819810000001070287018758135210_" style="fill:url(#矩形_00000128477606425544367130000013593168682964418233_);" d="
		M512.8,164.5l6.5,0.6l6.2,1l6,1.4l5.7,1.8l5.4,2.1l5.3,2.6l5,2.8l4.7,3.2l4.4,3.4l4.1,3.8l3.8,4.1l3.4,4.3l3.1,4.6l2.7,4.9l2.4,5.1
		l1.9,5.2l1.5,5.4l1.2,5.7l0.6,5.9l0.3,6.1v120l-0.3,6.1l-0.7,5.9l-1.1,5.7l-1.6,5.5l-2.1,5.4l-2.4,5.2l-2.8,4.9l-3.2,4.7l-3.5,4.4
		l-3.8,4.2l-4.2,3.8l-4.4,3.5l-4.7,3.2l-4.9,2.8l-5.2,2.4l-5.4,2.1l-5.5,1.6l-5.7,1.1l-5.9,0.7L506,432l-7.2-0.5l-6.4-1.5l-6.1-2
		l-5.7-2.5l-5.5-3l-5.2-3.5l-4.8-3.8l-4.4-4.3l-4.2-4.7l-3.7-5.1l-3.2-5.3l-2.8-5.6l-2.4-6l-1.9-6.1l-1.4-6.3l-0.8-6.5l-0.3-6.8
		v-120l0.2-6.8l0.6-6.6l1-6.3l1.4-6l1.8-6.1l2.2-5.6l2.6-5.3l3-5l3.4-4.7l3.8-4.3l4.2-3.8l4.6-3.5l4.9-3l5.3-2.5l5.9-2l6.4-1.5
		l3.5-0.5l11.1-0.6L512.8,164.5z M513.5,199.1l-8,0.8l-7.3,2.3l-6.7,3.6l-5.9,4.8l-4.8,5.9l-3.6,6.7l-2.3,7.3l-0.8,8v120l0.8,8
		l1,3.7l3,7.1l4.2,6.3l5.3,5.3l6.3,4.2l7.1,3l7.6,1.6l4.1,0.2l8-0.8l7.3-2.3l6.7-3.6l5.9-4.8l4.8-5.9l3.6-6.7l2.3-7.3l0.8-8v-120
		l-0.8-8l-1-3.7l-3-7.1l-4.2-6.3l-5.3-5.3l-6.3-4.2l-7.1-3l-7.6-1.6L513.5,199.1z"/>
	
		<linearGradient id="矩形备份-14_00000180335958428071542180000009550368462455153087_" gradientUnits="userSpaceOnUse" x1="479.0905" y1="292.9824" x2="479.3226" y2="291.8564" gradientTransform="matrix(147 0 0 -267 -69945 78355.6484)">
		<stop  offset="0" style="stop-color:#3A5EDF"/>
		<stop  offset="0.5441" style="stop-color:#3A5EDF"/>
		<stop  offset="1" style="stop-color:#B6D5FF"/>
	</linearGradient>
	<path id="矩形备份-14" style="fill:url(#矩形备份-14_00000180335958428071542180000009550368462455153087_);" d="
		M500.5,165l6.1,0.3l5.9,0.7l5.7,1.1l5.5,1.6l5.4,2.1l5.2,2.4l4.9,2.8l4.7,3.2l4.4,3.5l4.2,3.8l3.8,4.2l3.5,4.4l3.2,4.7l2.8,4.9
		l2.4,5.2l2.1,5.4l1.6,5.5l1.1,5.7l0.7,5.9l0.3,6.1v120l-0.3,6.1l-0.7,5.9l-1.1,5.7l-1.6,5.5l-2.1,5.4l-2.4,5.2l-2.8,4.9l-3.2,4.7
		l-3.5,4.4l-3.8,4.2l-4.2,3.8l-4.4,3.5l-4.7,3.2l-4.9,2.8l-5.2,2.4l-5.4,2.1l-5.5,1.6l-5.7,1.1l-5.9,0.7l-6.1,0.3l-6.1-0.3l-5.9-0.7
		l-5.7-1.1l-5.5-1.6l-5.4-2.1l-5.2-2.4l-4.9-2.8l-4.7-3.2l-4.4-3.5l-4.2-3.8l-3.8-4.2l-3.5-4.4l-3.2-4.7l-2.8-4.9l-2.4-5.2l-2.1-5.4
		l-1.6-5.5l-1.1-5.7l-0.7-5.9l-0.3-6.1v-120l0.3-6.1l0.7-5.9l1.1-5.7l1.6-5.5l2.1-5.4l2.4-5.2l2.8-4.9l3.2-4.7l3.5-4.4l3.8-4.2
		l4.2-3.8l4.4-3.5l4.7-3.2l4.9-2.8l5.2-2.4l5.4-2.1l5.5-1.6l5.7-1.1l5.9-0.7L500.5,165z M500.5,199.1l-8,0.8l-7.3,2.3l-6.7,3.6
		l-5.9,4.8l-4.8,5.9l-3.6,6.7l-2.3,7.3l-0.8,8v120l0.8,8l1,3.7l3,7.1l4.2,6.3l5.3,5.3l6.3,4.2l7.1,3l7.6,1.6l4.1,0.2l8-0.8l7.3-2.3
		l6.7-3.6l5.9-4.8l4.8-5.9l3.6-6.7l2.3-7.3l0.8-8v-120l-0.8-8l-1-3.7l-3-7.1l-4.2-6.3l-5.3-5.3l-6.3-4.2l-7.1-3l-7.6-1.6
		L500.5,199.1z"/>
	
		<linearGradient id="矩形_00000140718163381784978240000001513734857377498282_" gradientUnits="userSpaceOnUse" x1="470.8588" y1="334.3664" x2="469.8792" y2="334.3563" gradientTransform="matrix(39.7 0 0 -11 -18303.791 3917.5217)">
		<stop  offset="0" style="stop-color:#D9EAFF"/>
		<stop  offset="1" style="stop-color:#9BBFFE"/>
	</linearGradient>
	
		<path id="矩形_00000181809631942975554110000000926830607552024484_" style="fill-rule:evenodd;clip-rule:evenodd;fill:url(#矩形_00000140718163381784978240000001513734857377498282_);" d="
		M366.3,234l23,2.5L376,245l-26.4-3.7L366.3,234z"/>
	<g>
		<g>
			<path class="st4" d="M742.3,274l23,2.5L752,285l-26.4-3.7L742.3,274z"/>
		</g>
		
			<linearGradient id="SVGID_00000003813359201076358680000009626765751146242487_" gradientUnits="userSpaceOnUse" x1="470.8588" y1="334.3664" x2="469.8792" y2="334.3563" gradientTransform="matrix(39.7 0 0 -11 -17927.8066 3957.5217)">
			<stop  offset="0" style="stop-color:#D9EAFF"/>
			<stop  offset="1" style="stop-color:#9BBFFE"/>
		</linearGradient>
		<path style="fill-rule:evenodd;clip-rule:evenodd;fill:url(#SVGID_00000003813359201076358680000009626765751146242487_);" d="
			M742.3,274l23,2.5L752,285l-26.4-3.7L742.3,274z"/>
	</g>
	<g>
		<g>
			<path class="st4" d="M333.8,138.5l29.7,3.3l-13.9,8.2l-28.6-4.4L333.8,138.5z"/>
		</g>
		
			<linearGradient id="SVGID_00000010278999159013983050000016424976932412202920_" gradientUnits="userSpaceOnUse" x1="471.6587" y1="332.4615" x2="470.6791" y2="332.4519" gradientTransform="matrix(42.5 0 0 -11.5 -19682 3967.5435)">
			<stop  offset="0" style="stop-color:#D9EAFF"/>
			<stop  offset="1" style="stop-color:#9BBFFE"/>
		</linearGradient>
		<path style="fill-rule:evenodd;clip-rule:evenodd;fill:url(#SVGID_00000010278999159013983050000016424976932412202920_);" d="
			M333.8,138.5l29.7,3.3l-13.9,8.2l-28.6-4.4L333.8,138.5z"/>
	</g>
	<g>
		<g>
			<path class="st4" d="M709.8,178.5l29.7,3.3l-13.9,8.2l-28.6-4.4L709.8,178.5z"/>
		</g>
		
			<linearGradient id="SVGID_00000163068365517358310190000004907085668088696238_" gradientUnits="userSpaceOnUse" x1="471.6587" y1="332.4615" x2="470.6791" y2="332.4519" gradientTransform="matrix(42.5 0 0 -11.5 -19306 4007.5435)">
			<stop  offset="0" style="stop-color:#D9EAFF"/>
			<stop  offset="1" style="stop-color:#9BBFFE"/>
		</linearGradient>
		<path style="fill-rule:evenodd;clip-rule:evenodd;fill:url(#SVGID_00000163068365517358310190000004907085668088696238_);" d="
			M709.8,178.5l29.7,3.3l-13.9,8.2l-28.6-4.4L709.8,178.5z"/>
	</g>
</g>
<g>
	<path id="路径-13备份" class="st17" d="M411.3,47.5l6.7,9.1l3.9,4.3l6.1,6.3l6.4,5.8l12.8,10.5l20.3,15l8.1,5.1l7.5,4.3
		l7.7,3.8l13,5.3l11.4,3.2l9.5,1.4l6.5,0.2l14.5-0.6l7.6-0.8l15.2-2.5l6.9-1.5l6.5-1.9l5.2-1.9l3.2-1.6l4-3l2.3-3.1l1.9-3.5l1.5-3.6
		l0.8-3.5l-0.1-4.3l-0.5-1.9l-0.9-1.6l-1.3-1.3l-1.8-1l-2-0.5l-2.7-0.1L588,84l-3.2,1.6l-1.9,1.7l-3.5,4.4l-3.2,6l-1.4,3.4l-2,7.4
		l-0.6,3.9l-0.2,4.1l0.2,4l0.7,4l1.2,4l1.6,3.9l2.3,3.7l3.1,3.7l5.5,4.8l7.7,4.4l7.2,3l7.7,2.6l8.3,2.1l9,1.6l9.5,1.1l10.3,0.6"/>
</g>
<linearGradient id="路径-23_00000094598713581793882280000002402065349852472195_" gradientUnits="userSpaceOnUse" x1="474.4667" y1="301.998" x2="474.4667" y2="300.998" gradientTransform="matrix(60 0 0 -44 -28087 13297.4561)">
	<stop  offset="0" style="stop-color:#FBE214"/>
	<stop  offset="1" style="stop-color:#EFBE64"/>
</linearGradient>
<path id="路径-23" style="fill-rule:evenodd;clip-rule:evenodd;fill:url(#路径-23_00000094598713581793882280000002402065349852472195_);" d="
	M351,9.5l26,44L411,17L351,9.5z"/>
<path id="路径-24" class="st19" d="M387.3,42.3l9.2,5.2l1-16.5L387.3,42.3z"/>
<path id="路径-25" class="st19" d="M381,26.5l16.5,5l-5,5L381,26.5z"/>
<radialGradient id="椭圆形备份-4_00000063616194650321180550000001094402921826980287_" cx="468.973" cy="303.8396" r="0.6341" gradientTransform="matrix(36 0 0 -36 -16783 11258.6084)" gradientUnits="userSpaceOnUse">
	<stop  offset="0" style="stop-color:#BFD7FF"/>
	<stop  offset="1" style="stop-color:#7195FF"/>
</radialGradient>
<path id="椭圆形备份-4" style="fill-rule:evenodd;clip-rule:evenodd;fill:url(#椭圆形备份-4_00000063616194650321180550000001094402921826980287_);" d="
	M123,317l-0.3,3.3l-0.8,3l-1.4,2.8l-1.7,2.5l-2.2,2.2l-2.5,1.7l-2.8,1.4l-3,0.8L105,335l-3.3-0.3l-3-0.8l-2.8-1.4l-2.5-1.7l-2.2-2.2
	l-1.7-2.5l-1.4-2.8l-0.8-3L87,317l0.3-3.3l0.8-3l1.4-2.8l1.7-2.5l2.2-2.2l2.5-1.7l2.8-1.4l3-0.8l3.3-0.3l3.3,0.3l3,0.8l2.8,1.4
	l2.5,1.7l2.2,2.2l1.7,2.5l1.4,2.8l0.8,3L123,317z"/>
</svg>
