<?xml version="1.0" encoding="utf-8"?>
<!-- Generator: Adobe Illustrator 26.2.1, SVG Export Plug-In . SVG Version: 6.00 Build 0)  -->
<svg version="1.1" id="图层_1" xmlns="http://www.w3.org/2000/svg" xmlns:xlink="http://www.w3.org/1999/xlink" x="0px" y="0px"
	 viewBox="0 0 1024 504" style="enable-background:new 0 0 1024 504;" xml:space="preserve">
<style type="text/css">
	.st0{fill-rule:evenodd;clip-rule:evenodd;fill:url(#路径-4_00000018231843725341671600000016232810371383965354_);}
	.st1{fill:url(#矩形备份-4_00000069395388549264098690000011050341526037800083_);}
	.st2{fill:#979797;}
	.st3{fill:url(#SVGID_1_);}
	.st4{fill:url(#矩形备份-15_00000012457306821151881970000003560863375259837111_);}
	.st5{fill:url(#矩形备份-16_00000157289857895886852590000017208437217296719012_);}
	.st6{fill-rule:evenodd;clip-rule:evenodd;fill:url(#矩形备份-9_00000076593439833160021230000000352334740579821994_);}
	.st7{fill-rule:evenodd;clip-rule:evenodd;fill:url(#矩形备份-11_00000167358253710637295890000014277713145998474410_);}
	.st8{fill:url(#形状结合_00000135658454722213755240000014278038765474173059_);}
	.st9{fill-rule:evenodd;clip-rule:evenodd;fill:url(#形状结合_00000003813593167633558690000018036021438707560348_);}
	.st10{fill-rule:evenodd;clip-rule:evenodd;fill:#7A7A7A;}
	.st11{fill-rule:evenodd;clip-rule:evenodd;fill:url(#SVGID_00000106130699973728771540000018053798319432526466_);}
	.st12{fill-rule:evenodd;clip-rule:evenodd;fill:url(#SVGID_00000036944808421853281460000004671236435698535099_);}
	.st13{fill-rule:evenodd;clip-rule:evenodd;fill:url(#椭圆形_00000051342460400474086530000017165394475941538695_);}
	.st14{fill-rule:evenodd;clip-rule:evenodd;fill:#F1C554;}
	.st15{fill:none;stroke:#60A3FF;stroke-width:2;stroke-dasharray:3,2;}
	.st16{fill-rule:evenodd;clip-rule:evenodd;fill:url(#椭圆形备份-7_00000062908973221504433480000008288426419645439873_);}
</style>
<g>
	
		<linearGradient id="路径-4_00000023997203349833959240000011778523170321920441_" gradientUnits="userSpaceOnUse" x1="962.7863" y1="41.2753" x2="963.3051" y2="41.2799" gradientTransform="matrix(750.7 0 0 71.1 -722699.5 -2540.0107)">
		<stop  offset="0" style="stop-color:#3A58DD;stop-opacity:0"/>
		<stop  offset="1" style="stop-color:#4164FF;stop-opacity:0.8469"/>
	</linearGradient>
	
		<path id="路径-4" style="fill-rule:evenodd;clip-rule:evenodd;fill:url(#路径-4_00000023997203349833959240000011778523170321920441_);" d="
		M49.8,370.9v21l-38.5,12l275.5,11.6l188.9,7.5l122.7,4.4l74.1,2.3l40.4,0.8h19l6.8-0.3l1.6-0.3l5.9-3.1l12.8-5.1l2.1-1.3l0.8-0.9
		l0.1-0.6l-0.5-0.7l-1.5-0.8l-7.8-3l-11.3-3.4l-16.6-4l-10.3-2.2l-27.9-4.9l-18.1-2.8l-43.6-6l-56.1-6.7l-188.7-11.6l-54.5-3
		L188.6,363l-82.6-3.6h-5.3l-6.6,0.6l-8.1,1.3l-10,2.2l-11.9,3.1L49.8,370.9z"/>
</g>
<linearGradient id="矩形备份-4_00000099662246146640892870000013291832879359968153_" gradientUnits="userSpaceOnUse" x1="958.031" y1="49.3957" x2="957.8757" y2="48.4983" gradientTransform="matrix(147 0 0 267.6 -140274 -12804.2383)">
	<stop  offset="0" style="stop-color:#D9EAFF"/>
	<stop  offset="1" style="stop-color:#9BBFFE"/>
</linearGradient>
<path id="矩形备份-4" style="fill:url(#矩形备份-4_00000099662246146640892870000013291832879359968153_);" d="M542.8,142.4
	l6.5,0.6l6.2,1l6,1.4l5.7,1.8l5.4,2.1l5.3,2.6l5,2.8l4.7,3.2l4.4,3.4l4.1,3.8l3.8,4.1l3.4,4.3l3.1,4.6l2.7,4.9l2.4,5.1l1.9,5.2
	l1.5,5.4l1.2,5.7l0.6,5.9l0.3,6.1v120l-0.3,6.1l-0.7,5.9l-1.1,5.7l-1.6,5.5l-2.1,5.4l-2.4,5.2l-2.8,4.9l-3.2,4.7l-3.5,4.4l-3.8,4.2
	l-4.2,3.8l-4.4,3.5l-4.7,3.2l-4.9,2.8l-5.2,2.4l-5.4,2.1l-5.5,1.6l-5.7,1.1l-5.9,0.7l-13.6,0.3l-7.2-0.5l-6.4-1.5l-6.1-2l-5.7-2.5
	l-5.5-3l-5.2-3.5l-4.8-3.8l-4.4-4.3l-4.2-4.7l-3.7-5.1l-3.2-5.3l-2.8-5.6l-2.4-6l-1.9-6.1l-1.4-6.3l-0.8-6.5l-0.3-6.8v-120l0.2-6.8
	l0.6-6.6l1-6.3l1.4-6l1.8-6.1l2.2-5.6l2.6-5.3l3-5l3.4-4.7l3.8-4.3l4.2-3.8l4.6-3.5l4.9-3l5.3-2.5l5.9-2l6.4-1.5l3.5-0.5l11.1-0.6
	L542.8,142.4z M543.5,177l-8,0.8l-7.3,2.3l-6.7,3.6l-5.9,4.8l-4.8,5.9l-3.6,6.7l-2.3,7.3l-0.8,8v120l0.8,8l1,3.7l3,7.1l4.2,6.3
	l5.3,5.3l6.3,4.2l3.5,1.7l7.3,2.3l3.9,0.6l4.1,0.2l4.1-0.2l7.6-1.6l7.1-3l6.3-4.2l5.3-5.3l2.3-3.1l3.6-6.7l2.3-7.3l0.8-8v-120
	l-0.8-8l-1-3.7l-3-7.1l-4.2-6.3l-5.3-5.3l-6.3-4.2l-7.1-3l-7.6-1.6L543.5,177z"/>
<g>
	<g>
		<path class="st2" d="M743.7,162.4l6.6,0.6l6.2,1l6,1.4l5.7,1.8l5.4,2.1l5.3,2.6l5,2.8l4.7,3.2l4.4,3.4l4.1,3.8l3.8,4.1l3.4,4.3
			l3.1,4.6l2.7,4.9l2.4,5.1l1.9,5.2l1.5,5.4l1.2,5.7l0.6,5.9l0.3,6.1v120l-0.3,6.1l-0.7,5.9l-1.1,5.7l-1.6,5.5l-2.1,5.4l-2.4,5.2
			l-2.8,4.9l-3.2,4.7l-3.5,4.4l-3.8,4.2l-4.2,3.8l-4.4,3.5l-4.7,3.2l-4.9,2.8l-5.2,2.4l-5.4,2.1l-5.5,1.6l-5.7,1.1l-5.9,0.7
			l-13.6,0.3l-7.2-0.5l-6.4-1.5l-6.1-2l-5.7-2.5l-5.5-3l-5.2-3.5l-4.8-3.8l-4.4-4.3l-4.2-4.7l-3.7-5.1l-3.2-5.3l-2.8-5.6l-2.4-6
			l-1.9-6.1l-1.4-6.3l-0.8-6.5l-0.3-6.8v-120l0.2-6.8l0.6-6.6l1-6.3l1.4-6l1.8-6.1l2.2-5.6l2.6-5.3l3-5l3.4-4.7l3.8-4.3l4.2-3.8
			l4.6-3.5l4.9-3l5.3-2.5l5.9-2l6.4-1.5l3.5-0.5l11.1-0.6L743.7,162.4z M744.5,197l-8,0.8l-7.3,2.3l-6.7,3.6l-5.9,4.8l-4.8,5.9
			l-3.6,6.7l-2.3,7.3l-0.8,8v120l0.8,8l1,3.7l3,7.1l4.2,6.3l5.3,5.3l6.3,4.2l7.1,3l7.6,1.6l4.1,0.2l8-0.8l7.3-2.3l6.7-3.6l5.9-4.8
			l4.8-5.9l3.6-6.7l2.3-7.3l0.8-8v-120l-0.8-8l-1-3.7l-3-7.1l-4.2-6.3l-5.3-5.3l-6.3-4.2l-7.1-3l-7.6-1.6L744.5,197z"/>
	</g>
	
		<linearGradient id="SVGID_1_" gradientUnits="userSpaceOnUse" x1="958.031" y1="49.3957" x2="957.8757" y2="48.4983" gradientTransform="matrix(147 0 0 267.6 -140073 -12784.2383)">
		<stop  offset="0" style="stop-color:#D9EAFF"/>
		<stop  offset="1" style="stop-color:#9BBFFE"/>
	</linearGradient>
	<path class="st3" d="M743.7,162.4l6.6,0.6l6.2,1l6,1.4l5.7,1.8l5.4,2.1l5.3,2.6l5,2.8l4.7,3.2l4.4,3.4l4.1,3.8l3.8,4.1l3.4,4.3
		l3.1,4.6l2.7,4.9l2.4,5.1l1.9,5.2l1.5,5.4l1.2,5.7l0.6,5.9l0.3,6.1v120l-0.3,6.1l-0.7,5.9l-1.1,5.7l-1.6,5.5l-2.1,5.4l-2.4,5.2
		l-2.8,4.9l-3.2,4.7l-3.5,4.4l-3.8,4.2l-4.2,3.8l-4.4,3.5l-4.7,3.2l-4.9,2.8l-5.2,2.4l-5.4,2.1l-5.5,1.6l-5.7,1.1l-5.9,0.7
		l-13.6,0.3l-7.2-0.5l-6.4-1.5l-6.1-2l-5.7-2.5l-5.5-3l-5.2-3.5l-4.8-3.8l-4.4-4.3l-4.2-4.7l-3.7-5.1l-3.2-5.3l-2.8-5.6l-2.4-6
		l-1.9-6.1l-1.4-6.3l-0.8-6.5l-0.3-6.8v-120l0.2-6.8l0.6-6.6l1-6.3l1.4-6l1.8-6.1l2.2-5.6l2.6-5.3l3-5l3.4-4.7l3.8-4.3l4.2-3.8
		l4.6-3.5l4.9-3l5.3-2.5l5.9-2l6.4-1.5l3.5-0.5l11.1-0.6L743.7,162.4z M744.5,197l-8,0.8l-7.3,2.3l-6.7,3.6l-5.9,4.8l-4.8,5.9
		l-3.6,6.7l-2.3,7.3l-0.8,8v120l0.8,8l1,3.7l3,7.1l4.2,6.3l5.3,5.3l6.3,4.2l7.1,3l7.6,1.6l4.1,0.2l8-0.8l7.3-2.3l6.7-3.6l5.9-4.8
		l4.8-5.9l3.6-6.7l2.3-7.3l0.8-8v-120l-0.8-8l-1-3.7l-3-7.1l-4.2-6.3l-5.3-5.3l-6.3-4.2l-7.1-3l-7.6-1.6L744.5,197z"/>
</g>
<linearGradient id="矩形备份-15_00000124133956932812636630000012275350153129980081_" gradientUnits="userSpaceOnUse" x1="957.8115" y1="48.2402" x2="958.0436" y2="49.3662" gradientTransform="matrix(147 0 0 267 -140287 -12772.9531)">
	<stop  offset="0" style="stop-color:#3A5EDF"/>
	<stop  offset="0.5441" style="stop-color:#3A5EDF"/>
	<stop  offset="1" style="stop-color:#B6D5FF"/>
</linearGradient>
<path id="矩形备份-15" style="fill:url(#矩形备份-15_00000124133956932812636630000012275350153129980081_);" d="
	M530.5,142.9l6.1,0.3l5.9,0.7l5.7,1.1l5.5,1.6l5.4,2.1l5.2,2.4l4.9,2.8l4.7,3.2l4.4,3.5l4.2,3.8l3.8,4.2l3.5,4.4l3.2,4.7l2.8,4.9
	l2.4,5.2l2.1,5.4l1.6,5.5l1.1,5.7l0.7,5.9l0.3,6.1v120l-0.3,6.1l-0.7,5.9l-1.1,5.7l-1.6,5.5l-2.1,5.4l-2.4,5.2l-2.8,4.9l-3.2,4.7
	l-3.5,4.4l-3.8,4.2l-4.2,3.8l-4.4,3.5l-4.7,3.2l-4.9,2.8l-5.2,2.4l-5.4,2.1l-5.5,1.6l-5.7,1.1l-5.9,0.7l-6.1,0.3l-6.1-0.3l-5.9-0.7
	l-5.7-1.1l-5.5-1.6l-5.4-2.1l-5.2-2.4l-4.9-2.8l-4.7-3.2l-4.4-3.5l-4.2-3.8l-3.8-4.2l-3.5-4.4l-3.2-4.7l-2.8-4.9l-2.4-5.2l-2.1-5.4
	l-1.6-5.5l-1.1-5.7l-0.7-5.9l-0.3-6.1v-120l0.3-6.1l0.7-5.9l1.1-5.7l1.6-5.5l2.1-5.4l2.4-5.2l2.8-4.9l3.2-4.7l3.5-4.4l3.8-4.2
	l4.2-3.8l4.4-3.5l4.7-3.2l4.9-2.8l5.2-2.4l5.4-2.1l5.5-1.6l5.7-1.1l5.9-0.7L530.5,142.9z M530.5,177l-8,0.8l-7.3,2.3l-6.7,3.6
	l-5.9,4.8l-4.8,5.9l-3.6,6.7l-2.3,7.3l-0.8,8v120l0.8,8l1,3.7l3,7.1l4.2,6.3l5.3,5.3l6.3,4.2l3.5,1.7l7.3,2.3l3.9,0.6l4.1,0.2
	l4.1-0.2l7.6-1.6l7.1-3l6.3-4.2l5.3-5.3l2.3-3.1l3.6-6.7l2.3-7.3l0.8-8v-120l-0.8-8l-1-3.7l-3-7.1l-4.2-6.3l-5.3-5.3l-6.3-4.2
	l-7.1-3l-7.6-1.6L530.5,177z"/>
<linearGradient id="矩形备份-16_00000061435509212501662150000013775304249496854459_" gradientUnits="userSpaceOnUse" x1="957.8115" y1="48.2402" x2="958.0436" y2="49.3662" gradientTransform="matrix(147 0 0 267 -140086 -12752.9531)">
	<stop  offset="0" style="stop-color:#3A5EDF"/>
	<stop  offset="0.5441" style="stop-color:#3A5EDF"/>
	<stop  offset="1" style="stop-color:#B6D5FF"/>
</linearGradient>
<path id="矩形备份-16" style="fill:url(#矩形备份-16_00000061435509212501662150000013775304249496854459_);" d="
	M731.5,162.9l6.1,0.3l5.9,0.7l5.7,1.1l5.5,1.6l5.4,2.1l5.2,2.4l4.9,2.8l4.7,3.2l4.4,3.5l4.2,3.8l3.8,4.2l3.5,4.4l3.2,4.7l2.8,4.9
	l2.4,5.2l2.1,5.4l1.6,5.5l1.1,5.7l0.7,5.9l0.3,6.1v120l-0.3,6.1l-0.7,5.9l-1.1,5.7l-1.6,5.5l-2.1,5.4l-2.4,5.2l-2.8,4.9l-3.2,4.7
	l-3.5,4.4l-3.8,4.2l-4.2,3.8l-4.4,3.5l-4.7,3.2l-4.9,2.8l-5.2,2.4l-5.4,2.1l-5.5,1.6l-5.7,1.1l-5.9,0.7l-6.1,0.3l-6.1-0.3l-5.9-0.7
	l-5.7-1.1l-5.5-1.6l-5.4-2.1l-5.2-2.4l-4.9-2.8l-4.7-3.2l-4.4-3.5l-4.2-3.8l-3.8-4.2l-3.5-4.4l-3.2-4.7l-2.8-4.9l-2.4-5.2l-2.1-5.4
	l-1.6-5.5l-1.1-5.7l-0.7-5.9l-0.3-6.1v-120l0.3-6.1l0.7-5.9l1.1-5.7l1.6-5.5l2.1-5.4l2.4-5.2l2.8-4.9l3.2-4.7l3.5-4.4l3.8-4.2
	l4.2-3.8l4.4-3.5l4.7-3.2l4.9-2.8l5.2-2.4l5.4-2.1l5.5-1.6l5.7-1.1l5.9-0.7L731.5,162.9z M731.5,197l-8,0.8l-7.3,2.3l-6.7,3.6
	l-5.9,4.8l-4.8,5.9l-3.6,6.7l-2.3,7.3l-0.8,8v120l0.8,8l1,3.7l3,7.1l4.2,6.3l5.3,5.3l6.3,4.2l3.5,1.7l7.3,2.3l3.9,0.6l4.1,0.2
	l4.1-0.2l7.6-1.6l7.1-3l6.3-4.2l5.3-5.3l2.3-3.1l3.6-6.7l2.3-7.3l0.8-8v-120l-0.8-8l-1-3.7l-3-7.1l-4.2-6.3l-5.3-5.3l-6.3-4.2
	l-7.1-3l-7.6-1.6L731.5,197z"/>
<linearGradient id="矩形备份-9_00000045611098235561394960000013851638882534923925_" gradientUnits="userSpaceOnUse" x1="891.9905" y1="44.7195" x2="892.0505" y2="43.7634" gradientTransform="matrix(13.3 0 0 100.1 -11565.1943 -4249.9854)">
	<stop  offset="0" style="stop-color:#CAE1FF"/>
	<stop  offset="0.3188" style="stop-color:#A5C7F9"/>
	<stop  offset="1" style="stop-color:#3258E8"/>
	<stop  offset="1" style="stop-color:#3258E8"/>
</linearGradient>
<path id="矩形备份-9" style="fill-rule:evenodd;clip-rule:evenodd;fill:url(#矩形备份-9_00000045611098235561394960000013851638882534923925_);" d="
	M292,140.7l13.2-8.5l0.1,91.2l-13.3,8.9L292,140.7L292,140.7z"/>
<linearGradient id="矩形备份-11_00000004530899182818219850000013072851940652446143_" gradientUnits="userSpaceOnUse" x1="891.8399" y1="32.342" x2="892.2714" y2="31.3859" gradientTransform="matrix(13.3 0 0 37.4 -11451.1943 -1047.1024)">
	<stop  offset="0" style="stop-color:#CAE1FF"/>
	<stop  offset="0.3188" style="stop-color:#A5C7F9"/>
	<stop  offset="1" style="stop-color:#3258E8"/>
	<stop  offset="1" style="stop-color:#3258E8"/>
</linearGradient>
<path id="矩形备份-11" style="fill-rule:evenodd;clip-rule:evenodd;fill:url(#矩形备份-11_00000004530899182818219850000013072851940652446143_);" d="
	M406,137.7l13.2-8.5l0.1,28.5l-13.3,8.9L406,137.7L406,137.7z"/>
<linearGradient id="形状结合_00000036251096222046580570000000570149408975840164_" gradientUnits="userSpaceOnUse" x1="958.7874" y1="47.7769" x2="958.313" y2="46.8795" gradientTransform="matrix(161.5 0 0 168.2 -154453.5 -7642.7637)">
	<stop  offset="0" style="stop-color:#D9EAFF"/>
	<stop  offset="1" style="stop-color:#9BBFFE"/>
</linearGradient>
<path id="形状结合" style="fill:url(#形状结合_00000036251096222046580570000000570149408975840164_);" d="M305.3,221.4
	l47.7,6.3l7.1,1.1l6.7,1.7l6.4,2.2l6,2.6l5.9,3.2l5.5,3.5l5.2,3.8l4.8,4.3l4.6,4.6l4.1,4.8l3.8,5.1l3.5,5.4l3.1,5.6l2.6,5.8l2.3,5.8
	l1.9,6.1l1.5,6.1l1.1,6.2l0.7,6.1l0.2,6.2l-0.3,6.8L429,331l-1.2,6.1l-1.6,5.7l-2,5.5l-2.5,5.3l-2.9,4.9l-3.3,4.7l-3.8,4.3l-4.2,4
	l-4.4,3.6l-4.9,3.2l-5.3,2.9l-5.8,2.5l-6.3,2.1l-6.2,1.6l-6.6,1.2l-7.2,0.8l-7.6,0.2l-8.2-0.2l-8.1-0.8l-7.4-1.3l-6.8-1.8l-6.2-2.3
	l-6.1-2.8l-5.6-3.3l-5.2-3.6l-4.6-3.9l-4.4-4.4l-3.9-4.7l-3.5-5l-3.2-5.3l-2.7-5.5l-2.4-5.7l-2-5.9l-2.8-12.3l-1.4-12.7l-0.2-6.5
	L292,298l0.5,9.3l0.6,5l1,4.8l1.5,4.6l2,4.5l3.2,5.7l3.7,5.4l4.3,5.1l3.7,3.8l8.5,6.9l4.7,3.1l4.9,2.6l5.2,2.2l5.3,1.7l5.4,1.1
	l5.5,0.6l6.2,0.1l5.7-0.5l5.3-0.8l4.9-1.3l4.8-1.7l4.4-2.1l3.9-2.5l3.6-2.8l3.2-3.2l2.8-3.5l2.5-3.9l2-4.3l1.6-4.4l1.1-4.8l0.7-5.2
	l0.3-5.6l-0.3-5.5l-0.8-5.3l-1.4-5.2l-1.9-4.9l-2.3-4.8l-2.8-4.5l-3.2-4.3l-3.7-4.1l-4-3.7l-4.3-3.4l-4.7-3l-5.1-2.7l-5.3-2.3
	l-5.5-1.8l-5.8-1.5l-6.2-1l3.6-22.1l-59.3-7.4L305.3,221.4z"/>
<linearGradient id="形状结合_00000113333741744932863780000008004984666864646809_" gradientUnits="userSpaceOnUse" x1="958.3491" y1="48.2319" x2="958.6296" y2="49.358" gradientTransform="matrix(161 0 0 265.9 -153983 -12736.707)">
	<stop  offset="0" style="stop-color:#3A5EDF"/>
	<stop  offset="0.5441" style="stop-color:#3A5EDF"/>
	<stop  offset="1" style="stop-color:#B6D5FF"/>
</linearGradient>
<path id="形状结合_00000098923433786436587850000003644996655205688215_" style="fill-rule:evenodd;clip-rule:evenodd;fill:url(#形状结合_00000113333741744932863780000008004984666864646809_);" d="
	M266,122.9L406,138v28.7l-114-12.3v76.1l46.8,4.7l0.1,0.2l0.1-0.5l6.7,1l6.4,1.5l6.3,1.8l6,2.3l5.8,2.7l5.6,2.9l5.3,3.4l5,3.6l4.8,4
	l4.4,4.3l4,4.5l3.7,4.8l3.4,5.1l3,5.3l2.5,5.4l2.2,5.8l1.7,5.8l1.2,6l0.7,6.1l0.3,6.4l-0.3,6.7l-0.8,6.3l-1.3,6.1l-1.8,5.8l-2.3,5.6
	l-2.7,5.3l-3.2,5l-3.5,4.7l-4,4.4l-4.2,4.1l-4.6,3.6l-5,3.3l-5.2,2.8l-5.5,2.4l-5.8,2l-6,1.6l-6.1,1l-6.4,0.5h-6.5l-6.8-0.5l-6.6-1
	l-6.3-1.6l-6.2-1.9l-6-2.4l-5.8-2.9l-5.5-3.2l-5.3-3.6l-5-3.9l-4.8-4.3l-4.4-4.5l-4.1-4.9l-3.8-5.1l-3.4-5.4l-3-5.5l-2.6-5.8
	l-2.2-5.9l-1.7-6.1l-1.3-6.2l-0.7-6.3l-0.3-6.5h24.9l0.2,4.6l1.5,8.9l1.3,4.4l2.1,5.7l2.7,5.4l3.3,5.2l3.7,4.9l4.1,4.6l4.6,4.2
	l4.9,3.7l5.2,3.3l5.5,2.8l5.8,2.3l6,1.7l6.2,1l5.7,0.4l5.5-0.1l5.1-0.7l4.9-1.1l4.8-1.7l4.4-2.1l4.1-2.5l3.9-3l3.4-3.3l3.1-3.7
	l2.7-4l2.3-4.4l1.8-4.6l1.3-4.8l0.8-5.2l0.3-5.6l-0.3-5l-0.7-4.8l-1.1-4.7l-1.5-4.6l-1.9-4.4l-2.3-4.2l-2.7-4l-3.1-3.8l-7-6.9
	l-8.2-5.9l-4.4-2.4l-9.7-4l-5.2-1.5l-79-7.5V122.9z"/>
<g>
	<g>
		<path class="st10" d="M406,137.9l-140-15l13.3-8.2L419,129.2L406,137.9z"/>
	</g>
	
		<linearGradient id="SVGID_00000128485457612128131810000007882177526041557179_" gradientUnits="userSpaceOnUse" x1="958.4705" y1="19.9095" x2="957.6993" y2="19.9038" gradientTransform="matrix(153 0 0 23.2 -146262 -335.5536)">
		<stop  offset="0" style="stop-color:#D9EAFF"/>
		<stop  offset="1" style="stop-color:#9BBFFE"/>
	</linearGradient>
	<path style="fill-rule:evenodd;clip-rule:evenodd;fill:url(#SVGID_00000128485457612128131810000007882177526041557179_);" d="
		M406,137.9l-140-15l13.3-8.2L419,129.2L406,137.9z"/>
</g>
<g>
	<g>
		<path class="st10" d="M269.9,294.5l22.1,3.4l-10,7.3l-25-3.8L269.9,294.5z"/>
	</g>
	
		<linearGradient id="SVGID_00000019657437090920225330000002448561949261419700_" gradientUnits="userSpaceOnUse" x1="937.457" y1="-17.1577" x2="936.4773" y2="-17.1456" gradientTransform="matrix(35 0 0 10.7 -32519 483.3771)">
		<stop  offset="0" style="stop-color:#D9EAFF"/>
		<stop  offset="1" style="stop-color:#9BBFFE"/>
	</linearGradient>
	<path style="fill-rule:evenodd;clip-rule:evenodd;fill:url(#SVGID_00000019657437090920225330000002448561949261419700_);" d="
		M269.9,294.5l22.1,3.4l-10,7.3l-25-3.8L269.9,294.5z"/>
</g>
<g>
	
		<linearGradient id="椭圆形_00000002380665899102671190000016492007845556661912_" gradientUnits="userSpaceOnUse" x1="943.8137" y1="36.5278" x2="943.8137" y2="37.5278" gradientTransform="matrix(46.6 0 0 50.4 -43297.6172 -1830.7987)">
		<stop  offset="0" style="stop-color:#FADE1E"/>
		<stop  offset="1" style="stop-color:#F1C556"/>
	</linearGradient>
	
		<path id="椭圆形" style="fill-rule:evenodd;clip-rule:evenodd;fill:url(#椭圆形_00000002380665899102671190000016492007845556661912_);" d="
		M705.8,42.9l-1.3,3.1l-3.5,5.6l-2.2,2.4l-2.5,2l-2.7,1.8l-2.9,1.3l-3,0.9l-3,0.5l-3,0.1l-3-0.3l-3-0.8l-2.8-1.2l-2.5-1.6l-2.4-1.9
		l-2-2.2l-1.8-2.6l-1.4-2.9l-1.1-3L661,41l-0.2-6.6l0.5-3.2l1-3.3l2.9-6l4.1-5.1l2.5-2l2.7-1.8l2.9-1.3l3-0.9l3-0.5l3-0.1l3,0.3
		l3,0.8l2.8,1.2l2.5,1.6l2.4,1.9l2,2.2l1.8,2.6l1.4,2.9l1.1,3l0.7,3.1l0.3,3.3l-0.7,6.5L705.8,42.9z"/>
</g>
<g>
	<path id="路径-27" class="st14" d="M676.5,54.2l-7.5,6.6l10.2,3.2l-1.5-10.8L676.5,54.2z"/>
</g>
<path id="路径-28" class="st15" d="M673.8,62.2l-6.3,7.3l-4.7,6.5l-3.6,5.5l-2.4,4.8l-1.7,4.1l-0.8,3.6l-0.3,3.2l1.8,18.4l0.1,5.2
	l-0.4,5.3l-0.7,3.5l-1.2,3.4l-1.6,3.5l-2,3.2l-2.7,3.2l-3.5,3.3"/>
<radialGradient id="椭圆形备份-7_00000132767489319717305700000010406495445591890582_" cx="937.5841" cy="31.2787" r="0.6341" gradientTransform="matrix(36 0 0 36 -33370 -641.8262)" gradientUnits="userSpaceOnUse">
	<stop  offset="0" style="stop-color:#BFD7FF"/>
	<stop  offset="1" style="stop-color:#7195FF"/>
</radialGradient>
<path id="椭圆形备份-7" style="fill-rule:evenodd;clip-rule:evenodd;fill:url(#椭圆形备份-7_00000132767489319717305700000010406495445591890582_);" d="
	M406,480.9l-0.3,3.3l-0.8,3l-1.4,2.8l-1.7,2.5l-2.2,2.2l-2.5,1.7l-2.8,1.4l-3,0.8l-3.3,0.3l-3.3-0.3l-3-0.8l-2.8-1.4l-2.5-1.7
	l-2.2-2.2l-1.7-2.5l-1.4-2.8l-0.8-3l-0.3-3.3l0.3-3.3l0.8-3l1.4-2.8l1.7-2.5l2.2-2.2l2.5-1.7l2.8-1.4l3-0.8l3.3-0.3l3.3,0.3l3,0.8
	l2.8,1.4l2.5,1.7l2.2,2.2l1.7,2.5l1.4,2.8l0.8,3L406,480.9z"/>
</svg>
